<?xml version="1.0" encoding="UTF-8"?>
<svg version="1.1" xmlns="http://www.w3.org/2000/svg" width="2000" height="671">
<path d="M0 0 C0 0.99 0 1.98 0 3 C-1.80419922 4.39453125 -1.80419922 4.39453125 -4.3046875 5.8125 C-5.19800781 6.33070313 -6.09132813 6.84890625 -7.01171875 7.3828125 C-7.95660156 7.91648438 -8.90148437 8.45015625 -9.875 9 C-11.73005685 10.05638726 -13.58178757 11.11864277 -15.4296875 12.1875 C-16.25710449 12.65542969 -17.08452148 13.12335938 -17.93701172 13.60546875 C-20.26763999 14.99121934 -20.26763999 14.99121934 -22 18 C-22 23.70076356 -19.87091866 27.46220917 -16.9609375 32.27734375 C-15.03466387 34.25638903 -15.03466387 34.25638903 -11.9375 34.62890625 C-6.32430993 33.73235506 -2.35715168 31.04063002 2.375 28 C4.17362714 26.87363829 5.97306097 25.74856336 7.7734375 24.625 C8.56153809 24.12226563 9.34963867 23.61953125 10.16162109 23.1015625 C12 22 12 22 13 22 C13.75046281 29.83816707 12.44884476 35.45691534 8 42 C2.42400509 48.7491263 -5.60214107 50.65828033 -13.6875 53.125 C-18.77254747 56.00332876 -21.63290548 60.32735211 -25 65 C-25.46148437 65.63389648 -25.92296875 66.26779297 -26.3984375 66.92089844 C-29.11619659 70.65429678 -31.81680661 74.3996249 -34.5078125 78.15234375 C-37.96474626 82.96507101 -41.47650358 87.73588411 -45 92.5 C-49.53777144 98.63996442 -54.03979405 104.80346083 -58.5 111 C-62.960213 117.19654897 -67.46294793 123.35949681 -72 129.5 C-76.72575124 135.90399372 -81.44316253 142.31380658 -86.125 148.75 C-86.65738281 149.47638672 -87.18976563 150.20277344 -87.73828125 150.95117188 C-90.79592084 155.16819922 -93.49936266 159.42945712 -96 164 C-95.01 164 -94.02 164 -93 164 C-90.83093783 161.70528407 -90.83093783 161.70528407 -88.625 158.625 C-88.19582275 158.05209229 -87.76664551 157.47918457 -87.32446289 156.88891602 C-82.5102405 150.42693563 -77.82582866 143.86716751 -73.1171875 137.328125 C-72.58834961 136.59400391 -72.05951172 135.85988281 -71.51464844 135.10351562 C-70.55600809 133.77217371 -69.59821727 132.44021931 -68.64160156 131.10742188 C-57.9279386 116.22964321 -57.9279386 116.22964321 -50.5625 115 C-46.05703488 114.74211142 -42.92945385 115.68855656 -39 118 C-34.80489817 122.41589666 -33.91288606 125.73220414 -33.671875 131.76953125 C-34.59484254 138.04351297 -39.15190773 143.21296098 -42.8125 148.1875 C-43.37638428 148.96198486 -43.94026855 149.73646973 -44.52124023 150.53442383 C-47.60186776 154.75784429 -50.70993026 158.96051395 -53.828125 163.15625 C-54.76434692 164.41852417 -54.76434692 164.41852417 -55.71948242 165.70629883 C-56.91887956 167.32101245 -58.12198016 168.93298392 -59.3293457 170.54174805 C-62.5617661 174.88730111 -65.41955913 179.23659448 -68 184 C-67.01 184 -66.02 184 -65 184 C-63.33658366 182.16261167 -61.89291022 180.36819892 -60.4375 178.375 C-60.00348877 177.79685547 -59.56947754 177.21871094 -59.12231445 176.62304688 C-56.80161532 173.5126335 -54.53900978 170.36269504 -52.296875 167.1953125 C-51.85931885 166.57736816 -51.4217627 165.95942383 -50.97094727 165.32275391 C-50.13745642 164.13902885 -49.30947851 162.95139564 -48.48803711 161.75927734 C-44.62737305 156.2343245 -40.55940336 150.82140078 -33.75 149.25 C-28.86835211 148.92455681 -25.17270778 149.23253884 -21.26171875 152.4140625 C-17.96311604 155.86224386 -16.02919831 159.0238601 -15.87695312 163.86132812 C-16.30947594 171.3789866 -20.97190869 177.1541602 -25.375 182.875 C-26.62973132 184.54104561 -27.88361589 186.20772921 -29.13671875 187.875 C-29.77528809 188.71933594 -30.41385742 189.56367188 -31.07177734 190.43359375 C-34.16046522 194.54454424 -37.17690852 198.7066875 -40.1875 202.875 C-40.72745605 203.61733887 -41.26741211 204.35967773 -41.82373047 205.12451172 C-46.75185384 211.06326605 -46.75185384 211.06326605 -49 218 C-44.69379079 216.48248005 -42.76337935 213.24766072 -40.3125 209.625 C-39.42645997 208.35889975 -38.53972768 207.0932837 -37.65234375 205.828125 C-36.35941736 203.96646129 -35.07021976 202.10253955 -33.78955078 200.23242188 C-24.98433023 187.44503384 -24.98433023 187.44503384 -18 186 C-13.18634398 185.63856508 -9.4041743 186.30272111 -5.5625 189.3125 C-2.30495698 192.72894756 -0.7113886 195.37808095 -0.5625 200.125 C-0.91956242 210.61583387 -8.59013256 218.72037545 -14.6953125 226.66796875 C-18.01076482 230.98706508 -21.20240033 235.38786343 -24.375 239.8125 C-29.44831541 246.87129059 -34.58256063 253.88219873 -39.75366211 260.86962891 C-42.7066346 264.86596579 -45.63748458 268.87569698 -48.52734375 272.91796875 C-49.10033203 273.71847656 -49.67332031 274.51898438 -50.26367188 275.34375 C-51.33768756 276.8476226 -52.40830776 278.35392929 -53.47460938 279.86328125 C-66.07272819 297.49734533 -82.434769 308.07999417 -104 312 C-127.5934763 315.41690896 -151.71176188 310.22453863 -171 296 C-188.80658502 282.21184734 -201.00293394 262.55735703 -204 240 C-206.43170557 211.36223144 -197.56148339 190.69671296 -181 168 C-180.45537109 167.25347168 -179.91074219 166.50694336 -179.34960938 165.73779297 C-176.42719925 161.74411079 -173.48765392 157.7634428 -170.5390625 153.7890625 C-167.15372569 149.22042937 -163.82025789 144.61605474 -160.5 140 C-154.86609709 132.17689887 -149.18186869 124.39285728 -143.4296875 116.65625 C-141.13504126 113.56386072 -138.89735 110.44018007 -136.6953125 107.28125 C-136.16687744 106.5382666 -135.63844238 105.7952832 -135.09399414 105.02978516 C-134.10258315 103.63488743 -133.12663969 102.2288113 -132.16967773 100.81005859 C-129.71081843 97.39347292 -128.56594084 96.17650936 -124.41796875 94.8828125 C-119.59237545 95.04826141 -118.05419354 96.71602652 -114.734375 99.984375 C-110.25322126 105.19220232 -109.35606315 110.51873589 -109.609375 117.1953125 C-110.95144638 126.83138499 -118.16698882 134.45357706 -123.90625 141.93359375 C-126.77966275 145.68529155 -129.54884273 149.4977276 -132.25 153.375 C-132.97703125 154.41398438 -133.7040625 155.45296875 -134.453125 156.5234375 C-136.17658614 158.79605569 -136.17658614 158.79605569 -136 161 C-135.01 161 -134.02 161 -133 161 C-131.57964674 159.61125388 -131.57964674 159.61125388 -130.3203125 157.6953125 C-129.81056885 156.97609619 -129.3008252 156.25687988 -128.77563477 155.51586914 C-128.23092529 154.72688232 -127.68621582 153.93789551 -127.125 153.125 C-125.9494434 151.45947683 -124.7736559 149.79411662 -123.59765625 148.12890625 C-122.99840332 147.27312988 -122.39915039 146.41735352 -121.78173828 145.53564453 C-119.07673263 141.68607085 -116.32101963 137.87381866 -113.5625 134.0625 C-113.02890869 133.32330322 -112.49531738 132.58410645 -111.94555664 131.82250977 C-105.1112092 122.36436142 -98.16512307 112.98844285 -91.22949219 103.60449219 C-84.403143 94.36573909 -77.61154273 85.10505221 -70.90307617 75.78027344 C-67.48906534 71.04144582 -64.03873713 66.33135593 -60.56323242 61.63745117 C-57.69806459 57.76617621 -54.84748616 53.88429014 -52 50 C-51.27079346 49.01 -51.27079346 49.01 -50.52685547 48 C-49.23487428 46.23758161 -47.95850653 44.46507847 -46.6875 42.6875 C-45.99011719 41.72199219 -45.29273438 40.75648438 -44.57421875 39.76171875 C-41.76067891 34.82580643 -41.93689943 30.2345774 -42.1875 24.6875 C-42.22900571 15.55624418 -39.16374076 9.37488812 -32.9921875 2.7265625 C-23.91312627 -5.14195724 -10.20226875 -6.1750574 0 0 Z " fill="#000000" transform="translate(432,181)"/>
<path d="M0 0 C19.38573717 15.05881786 29.0336119 34.82706015 32.80859375 58.796875 C36.15280106 86.91510448 32.89264856 115.6903035 16.15234375 139.1953125 C1.50768054 157.74005356 -17.40191495 168.14900712 -40.75 171.25 C-44.83824137 171.5312319 -48.90300951 171.58437175 -53 171.5625 C-54.09610596 171.55758545 -55.19221191 171.5526709 -56.3215332 171.54760742 C-64.80974266 171.42542533 -72.56125126 170.62521601 -80.75 168.25 C-81.92433594 167.9096875 -83.09867188 167.569375 -84.30859375 167.21875 C-105.65239991 160.2989618 -120.7591215 146.20092087 -130.9375 126.5625 C-143.60355596 100.87938654 -144.0827545 67.32395847 -135.10498047 40.30908203 C-127.8851819 20.22491511 -113.74079173 3.64815685 -94.4375 -5.5625 C-65.65860746 -18.70198403 -26.52202261 -18.34717324 0 0 Z M-98.75 26.25 C-112.86496966 42.62568348 -115.96688308 65.2192338 -114.46875 86.125 C-112.72345855 105.14649272 -107.82809916 121.62522067 -93.75 135.25 C-93.16347656 135.83394531 -92.57695313 136.41789063 -91.97265625 137.01953125 C-81.74549037 146.52477954 -68.13152945 149.83494947 -54.5 149.6875 C-53.49928467 149.67920166 -52.49856934 149.67090332 -51.4675293 149.66235352 C-35.91334602 149.31064148 -22.36289228 144.77441172 -10.875 133.9375 C5.08233639 116.88561707 7.98983179 94.89834542 7.53515625 72.5234375 C6.93738781 55.81093228 2.7080885 40.53902521 -7.75 27.25 C-8.35585937 26.42628906 -8.96171875 25.60257812 -9.5859375 24.75390625 C-17.4554375 15.64858224 -29.08922815 10.32761687 -40.75 8.25 C-62.61333168 6.66459137 -83.025034 9.62987465 -98.75 26.25 Z " fill="#000000" transform="translate(1964.75,256.75)"/>
<path d="M0 0 C1.09926315 -0.00067978 1.09926315 -0.00067978 2.22073364 -0.00137329 C21.42364499 0.03314425 40.73565123 1.83454231 59.1875 7.375 C58.64602259 14.51181171 57.71710791 21.3821382 56.1875 28.375 C47.56067187 27.64336218 39.08556616 26.27458232 30.55273438 24.8359375 C8.40115701 21.1826312 -18.95451912 18.56941102 -38.4453125 32.21875 C-39.97920802 33.42219215 -41.49198761 34.65351825 -42.97265625 35.921875 C-44.8125 37.375 -44.8125 37.375 -47.8125 38.375 C-48.8536534 40.17440904 -48.8536534 40.17440904 -49.8125 42.375 C-50.92553295 44.09115426 -52.05172221 45.79881318 -53.1875 47.5 C-65.44028158 66.76889717 -66.6437297 91.65846872 -62.625 113.75 C-58.61464723 130.05255032 -51.59168748 145.45742525 -36.9375 154.5625 C-35.23997249 155.51942705 -33.53191341 156.45797952 -31.8125 157.375 C-31.11511719 157.7565625 -30.41773438 158.138125 -29.69921875 158.53125 C-8.99076799 168.82697693 17.12322162 165.39642613 38.1875 158.375 C38.6825 135.11 38.6825 135.11 39.1875 111.375 C28.2975 111.375 17.4075 111.375 6.1875 111.375 C6.1875 104.445 6.1875 97.515 6.1875 90.375 C24.6675 90.375 43.1475 90.375 62.1875 90.375 C62.42815286 110.17983874 62.42815286 110.17983874 62.48046875 118.6171875 C62.51634736 124.3763136 62.55880485 130.13486778 62.64013672 135.89355469 C62.70529483 140.53607702 62.7411986 145.17798622 62.75676346 149.82093048 C62.76785628 151.59285386 62.78951859 153.36474338 62.82188034 155.13640594 C62.86539943 157.6173928 62.87143645 160.09584177 62.86865234 162.57714844 C62.890224 163.31082642 62.91179565 164.04450439 62.934021 164.80041504 C62.9090271 166.85687256 62.9090271 166.85687256 62.1875 170.375 C46.7296032 183.40021297 21.54899522 185.60936723 2.375 185.625 C1.26576675 185.62601212 1.26576675 185.62601212 0.13412476 185.62704468 C-24.88464567 185.59074478 -48.54529505 181.28017577 -67.09375 163.1484375 C-85.95104406 143.91183006 -91.23735064 118.23143272 -91.125 92 C-91.12317719 91.32245667 -91.12135437 90.64491333 -91.11947632 89.94683838 C-91.00119937 63.79723047 -83.64670271 41.04374851 -64.8125 22.375 C-64.18988281 21.71886719 -63.56726562 21.06273437 -62.92578125 20.38671875 C-53.54100524 11.21283658 -39.41800845 5.23719192 -26.8125 2.375 C-26.06234619 2.20129883 -25.31219238 2.02759766 -24.53930664 1.84863281 C-16.38796136 0.1450267 -8.29203115 -0.01999771 0 0 Z " fill="#000000" transform="translate(1733.8125,242.625)"/>
<path d="M0 0 C72.71060172 0 72.71060172 0 88 8 C89.21236328 8.62841797 89.21236328 8.62841797 90.44921875 9.26953125 C99.98005471 14.88447196 105.51386491 23.96318157 108.31640625 34.48828125 C111.54301443 51.06382841 110.69892515 68.62217006 101.5859375 83.2734375 C94.47606384 93.19684405 86.15491856 99.33424079 75 104 C75.3403125 104.43530029 75.680625 104.87060059 76.03125 105.3190918 C88.88382874 121.77150351 101.62708834 138.30411823 113.96142578 155.14990234 C116.79138721 159.01355736 119.64045668 162.85935205 122.5390625 166.671875 C123.10077148 167.41203857 123.66248047 168.15220215 124.24121094 168.91479492 C125.30551713 170.31388362 126.37369209 171.71004037 127.44628906 173.1027832 C131 177.77939352 131 177.77939352 131 180 C108.63683678 182.98836903 108.63683678 182.98836903 101.55664062 178.42529297 C97.27815865 174.11874515 94.38487502 168.93176904 91.49316406 163.63378906 C89.15628627 159.51177506 86.33124985 155.79106004 83.5 152 C82.42858664 150.5173585 81.35958783 149.03296926 80.29296875 147.546875 C78.01992034 144.39947203 75.72963484 141.26554935 73.42578125 138.140625 C72.53246094 136.92608643 72.53246094 136.92608643 71.62109375 135.68701172 C70.42111829 134.07009014 69.20892501 132.46216053 67.984375 130.86376953 C64.81945443 126.69633429 62.16498544 122.77637911 60.22143555 117.90087891 C58.55907225 114.95227172 58.55907225 114.95227172 53 110 C38.15 109.505 38.15 109.505 23 109 C23 132.43 23 155.86 23 180 C15.41 180 7.82 180 0 180 C0 120.6 0 61.2 0 0 Z M23 21 C23 43.11 23 65.22 23 88 C31.353125 88.0928125 31.353125 88.0928125 39.875 88.1875 C42.47930908 88.22846802 42.47930908 88.22846802 45.13623047 88.27026367 C57.53050297 88.38450507 68.0571225 87.02356298 77.6875 78.5078125 C85.05824543 70.80538353 86.57232451 61.47850413 86.40014648 51.2097168 C86.037451 42.19486509 84.3474379 35.34057484 77.94921875 28.6875 C70.19370339 21.97330634 60.17270944 20.66579253 50.24609375 20.8046875 C49.19814636 20.80770874 49.19814636 20.80770874 48.12902832 20.81079102 C45.56511698 20.82110969 43.00130058 20.8490299 40.4375 20.875 C34.683125 20.91625 28.92875 20.9575 23 21 Z " fill="#000000" transform="translate(1440,245)"/>
<path d="M0 0 C79.45454545 0 79.45454545 0 96 14 C106.12240496 24.44375115 108.83197817 37.34975769 109.25 51.5625 C108.80399783 66.55932285 104.66722927 79.5660478 94.5 90.75 C93.675 91.4925 92.85 92.235 92 93 C91.154375 93.804375 90.30875 94.60875 89.4375 95.4375 C84.88414404 99.20993739 79.31346738 101.4980275 74 104 C74.70382812 104.86238281 75.40765625 105.72476563 76.1328125 106.61328125 C82.46958335 114.42863197 88.55801413 122.38736243 94.4934082 130.51123047 C99.02837248 136.70887017 103.64906986 142.83601972 108.3125 148.9375 C108.98998291 149.82405273 109.66746582 150.71060547 110.36547852 151.62402344 C111.66058522 153.31856747 112.95574852 155.01306824 114.25097656 156.70751953 C117.86699205 161.44710432 121.44818258 166.21208752 125 171 C125.54398438 171.72703125 126.08796875 172.4540625 126.6484375 173.203125 C130 177.75828729 130 177.75828729 130 180 C107.63683678 182.98836903 107.63683678 182.98836903 100.55664062 178.42529297 C96.27815865 174.11874515 93.38487502 168.93176904 90.49316406 163.63378906 C88.15628627 159.51177506 85.33124985 155.79106004 82.5 152 C81.42858664 150.5173585 80.35958783 149.03296926 79.29296875 147.546875 C77.01992034 144.39947203 74.72963484 141.26554935 72.42578125 138.140625 C71.83015381 137.33093262 71.23452637 136.52124023 70.62084961 135.68701172 C69.4212705 134.07040599 68.20989652 132.4624821 66.98657227 130.86376953 C63.82487396 126.69657031 61.15408242 122.7549325 59.16650391 117.90087891 C57.49616309 114.96253004 57.49616309 114.96253004 52 110 C42.43 109.67 32.86 109.34 23 109 C23 132.43 23 155.86 23 180 C15.41 180 7.82 180 0 180 C0 120.6 0 61.2 0 0 Z M23 21 C23 43.11 23 65.22 23 88 C28.40375 88.061875 33.8075 88.12375 39.375 88.1875 C41.05899902 88.21481201 42.74299805 88.24212402 44.47802734 88.27026367 C56.7404877 88.38671841 67.16947838 86.92421125 76.6875 78.5078125 C84.06623516 70.79703426 85.54887005 61.48707985 85.40673828 51.21411133 C85.09466484 42.98848313 83.49689611 35.38828466 78 29 C67.24089491 19.88211433 53.00115001 20.60183878 39.75 20.8125 C34.2225 20.874375 28.695 20.93625 23 21 Z " fill="#000000" transform="translate(780,245)"/>
<path d="M0 0 C36.3 0 72.6 0 110 0 C110 6.93 110 13.86 110 21 C81.29 21 52.58 21 23 21 C23 39.48 23 57.96 23 77 C49.73 77 76.46 77 104 77 C104 83.93 104 90.86 104 98 C77.27 98 50.54 98 23 98 C23 118.13 23 138.26 23 159 C52.7 159 82.4 159 113 159 C113 165.93 113 172.86 113 180 C75.71 180 38.42 180 0 180 C0 120.6 0 61.2 0 0 Z " fill="#000000" transform="translate(932,245)"/>
<path d="M0 0 C9.57 0 19.14 0 29 0 C37.48038175 24.11769172 45.81723645 48.2796136 54 72.5 C59.94304335 90.09007107 65.92690292 107.66354731 72.0625 125.1875 C72.51545944 126.48192017 72.51545944 126.48192017 72.97756958 127.80249023 C74.14655201 131.14268928 75.31606411 134.48270226 76.48625183 137.82247925 C79.23591337 145.6701926 81.98108611 153.51940236 84.7013855 161.37734985 C85.18576112 162.77408906 85.67182017 164.1702458 86.15969849 165.56576538 C86.81778888 167.44859894 87.46962362 169.33361557 88.12109375 171.21875 C88.4864624 172.26998047 88.85183105 173.32121094 89.22827148 174.40429688 C90 177 90 177 90 180 C82.08 180 74.16 180 66 180 C55.44213867 148.32641602 55.44213867 148.32641602 54.73397827 146.19021606 C54.2155508 144.64321089 53.68690525 143.09961202 53.15103149 141.55856323 C52.876008 140.76056305 52.6009845 139.96256287 52.31762695 139.14038086 C52.06551956 138.41886337 51.81341217 137.69734589 51.55366516 136.95396423 C51 135 51 135 51 132 C27.24 132.33 3.48 132.66 -21 133 C-25.89311765 147.7189382 -25.89311765 147.7189382 -30.78295898 162.43896484 C-31.39555147 164.27966204 -32.00825537 166.12032216 -32.62109375 167.9609375 C-33.09923523 169.40303589 -33.09923523 169.40303589 -33.58703613 170.87426758 C-33.8914563 171.78764893 -34.19587646 172.70103027 -34.50952148 173.64208984 C-34.90590065 174.83455826 -34.90590065 174.83455826 -35.31028748 176.05111694 C-36 178 -36 178 -37 180 C-44.92 180 -52.84 180 -61 180 C-57.62452743 167.62326725 -57.62452743 167.62326725 -56.06152344 163.01757812 C-55.53295746 161.45257568 -55.53295746 161.45257568 -54.99371338 159.85595703 C-54.61938171 158.75880371 -54.24505005 157.66165039 -53.859375 156.53125 C-53.46071228 155.35481934 -53.06204956 154.17838867 -52.65130615 152.96630859 C-51.57727528 149.80013182 -50.50018947 146.63503074 -49.4213562 143.4704895 C-48.74349887 141.48091861 -48.06696699 139.49090186 -47.39086914 137.50073242 C-41.55132957 120.31217181 -35.64500128 103.14836097 -29.62915039 86.02059937 C-23.02163454 67.20145448 -16.63334252 48.30847679 -10.25825119 29.40962696 C-9.62211244 27.52415154 -8.98540801 25.638867 -8.34869385 23.75358582 C-7.56666048 21.43752364 -6.78578207 19.12107102 -6.00628662 16.80415344 C-5.6539093 15.76059189 -5.30153198 14.71703033 -4.93847656 13.6418457 C-4.63508362 12.74117874 -4.33169067 11.84051178 -4.019104 10.91255188 C-2.73886342 7.25368378 -1.36108833 3.62956888 0 0 Z M14 23 C10.34576991 34.04693311 6.69471751 45.09491074 3.04776001 56.14424706 C1.35437691 61.27442076 -0.34011401 66.40422307 -2.03710938 71.53320312 C-3.67363044 76.47954134 -5.30727711 81.42682017 -6.93890381 86.37477493 C-7.56305876 88.26582516 -8.18826271 90.15652947 -8.81451416 92.04688644 C-9.68898757 94.68709798 -10.55978062 97.32849583 -11.4296875 99.97021484 C-11.69150818 100.75783707 -11.95332886 101.54545929 -12.2230835 102.35694885 C-13.53405325 106.09906751 -13.53405325 106.09906751 -14 110 C4.81 110 23.62 110 43 110 C41.25537699 103.60304895 39.5285221 97.28395069 37.48803711 90.98999023 C37.25672592 90.26983231 37.02541473 89.54967438 36.78709412 88.80769348 C36.03654167 86.47378083 35.28224714 84.14110243 34.52734375 81.80859375 C33.99829252 80.17002264 33.46928634 78.53143697 32.94032288 76.89283752 C31.83863111 73.4825565 30.73476601 70.07298749 29.62963867 66.66381836 C28.21257959 62.29097702 26.80358689 57.91558054 25.39646053 53.53953457 C24.31024348 50.16596873 23.21855388 46.79419282 22.12530708 43.42289925 C21.60300399 41.80916634 21.08271256 40.1947809 20.56446648 38.57974052 C19.84291596 36.33306888 19.11374035 34.0890146 18.38256836 31.84545898 C18.17005432 31.17797638 17.95754028 30.51049377 17.73858643 29.82278442 C16.79821285 26.9620531 16.16142668 25.16142668 14 23 Z " fill="#000000" transform="translate(1255,245)"/>
<path d="M0 0 C79.26838966 0 79.26838966 0 96.2265625 14.96484375 C106.30886876 25.40588376 108.85944852 38.79264968 109.3125 52.875 C108.96130792 68.51337653 104.38487598 81.27240018 93.609375 92.64453125 C73.4998755 110.79726807 49.15767708 109 23 109 C23 132.43 23 155.86 23 180 C15.41 180 7.82 180 0 180 C0 120.6 0 61.2 0 0 Z M23 21 C23 43.11 23 65.22 23 88 C51.5386115 90.08679943 51.5386115 90.08679943 77 79 C85.5411533 68.91592869 85.777659 57.92964556 85.19970703 45.30175781 C84.65993886 39.08056666 82.48364146 34.74327871 78.5 30.0625 C77.675 29.381875 76.85 28.70125 76 28 C75.4225 27.46375 74.845 26.9275 74.25 26.375 C59.62693346 17.43868156 37.86825892 21 23 21 Z " fill="#000000" transform="translate(1080,245)"/>
<path d="M0 0 C7.59 0 15.18 0 23 0 C23 59.4 23 118.8 23 180 C15.41 180 7.82 180 0 180 C0 120.6 0 61.2 0 0 Z " fill="#000000" transform="translate(1372,245)"/>
<path d="M0 0 C5.35532571 3.50990942 8.66233605 7.73042722 10 14 C10.99250731 21.28783937 9.20458814 26.99194761 5 33 C-0.94860446 38.68827166 -6.76634709 39.40946333 -14.6953125 39.34765625 C-20.78538096 38.70697529 -24.27007432 35.8209744 -28.375 31.5 C-32.42484076 25.26947576 -32.91794207 19.28675666 -32 12 C-29.83350553 6.32806168 -25.91401721 2.40972623 -21 -1 C-13.70181908 -4.26088935 -6.97164841 -3.55667429 0 0 Z " fill="#000000" transform="translate(654,324)"/>
<path d="M0 0 C4.86267955 4.21432227 8.64386976 8.28098275 9.2734375 14.85546875 C9.50031074 22.29865611 9.0958224 27.36118013 4 33 C-2.03251006 38.59110689 -6.62830089 39.47333402 -14.73828125 39.30078125 C-20.44551298 38.77448563 -24.0757864 37.29977284 -27.78125 32.87109375 C-31.94699912 26.9073916 -33.59320332 22.35572116 -33 15 C-31.15723471 8.26074409 -28.94036546 3.76984731 -23 0 C-15.17665193 -3.91964079 -7.80363193 -4.1400321 0 0 Z " fill="#000000" transform="translate(42,324)"/>
<path d="M0 0 C6.98789407 5.05548761 11.63136136 9.60515393 13.453125 18.1171875 C14.85778457 26.94211392 12.81414205 33.78101364 7.64453125 40.98828125 C3.36298882 46.22579752 -1.30237217 49.60741235 -8.1640625 50.3359375 C-19.1518366 50.45995301 -26.99594588 48.88890999 -35.5 41.6875 C-41.23424825 36.0715775 -43.10988886 31.69057225 -43.4375 23.6875 C-43.18163546 14.39108839 -40.28780486 7.34643048 -33.828125 0.62890625 C-24.85657157 -7.36497789 -9.88878077 -5.53653294 0 0 Z M-31.58203125 9.6953125 C-35.12059584 14.73292318 -36.33011035 19.87232669 -36 26 C-34.3138716 31.47991731 -30.72860936 34.94485494 -26 38 C-19.72671648 41.02912647 -13.95766278 42.82548541 -7 42 C-1.06185358 39.90418362 2.24166297 36.09802238 5.3125 30.6875 C6.68727861 25.31336545 6.88420139 20.76840278 4.375 15.75 C-2.00325395 8.36465332 -8.95140256 4.82014881 -18.6875 3.5 C-23.85694867 4.28029414 -27.95771402 5.81147626 -31.58203125 9.6953125 Z " fill="#000000" transform="translate(630,427)"/>
<path d="M0 0 C7.84789438 8.05441792 9.81688558 16.02331069 9.71484375 26.953125 C9.07592328 33.50389576 5.80450988 37.26742419 1.1875 41.6875 C-5.93897821 47.4230647 -15.55448449 50.28836252 -24.625 49.4375 C-31.70234698 48.09119839 -36.8851563 44.84220866 -41.625 39.4375 C-46.26798424 32.24490014 -47.60307625 24.92540311 -46.625 16.4375 C-44.10316856 8.53274584 -39.62463583 3.06844204 -32.31640625 -0.77734375 C-21.26227929 -5.87785225 -10.63620037 -6.33107165 0 0 Z M-35.625 12.4375 C-38.62428815 16.23659832 -39.46425471 19.61514129 -39.625 24.4375 C-38.65447001 30.87725194 -35.96588329 35.11025581 -30.859375 39.1171875 C-25.49707243 42.28582083 -20.44167844 41.86055045 -14.5625 40.375 C-8.18037704 38.1814554 -2.81800822 34.74611419 0.875 29 C2.93254008 24.1133423 3.28976445 20.95212909 1.45703125 15.9140625 C-1.03759026 10.40813412 -3.19433225 7.15283388 -8.625 4.4375 C-18.54247274 1.13167575 -28.06749237 6.11387117 -35.625 12.4375 Z " fill="#000000" transform="translate(646.625,207.5625)"/>
<path d="M0 0 C1.75 1.8125 1.75 1.8125 3 4 C1.7607016 7.7178952 0.28718934 8.54229089 -2.8125 10.875 C-8.74237404 15.34211339 -12.69359758 19.83801353 -15 27 C-15.11360829 34.04371399 -12.5266141 38.6817359 -8 44 C-3.68526485 47.98580916 1.11071426 50.81134062 7.09375 51.1015625 C13.45305461 50.81844277 17.48682778 48.38102979 22 44 C23.7855633 42.00350477 24.77934304 40.44131392 26 38 C25.62692516 34.62900235 24.37319745 33.0302274 21.9375 30.75 C21.38964844 30.22921875 20.84179688 29.7084375 20.27734375 29.171875 C19.64505859 28.59179688 19.64505859 28.59179688 19 28 C16.11562221 29.29299694 14.12780579 30.65941363 12 33 C10.35 32.34 8.7 31.68 7 31 C7 26.08269358 8.77702716 24.56879095 12 21.25 C12.47695313 20.74339844 12.95390625 20.23679687 13.4453125 19.71484375 C14.62139874 18.46819234 15.80956174 17.23295391 17 16 C20.006818 17.33999498 21.99762609 18.79845291 24.25 21.1875 C27.97102718 25.02960182 31.93586586 28.52701264 36 32 C33.65707948 42.68818027 27.96220528 50.70223413 19 57 C13.15233183 60.37365471 7.59875493 61.05059125 1 60 C-8.57060626 56.70104102 -16.50855901 50.94576478 -21.4375 42 C-24.57255693 34.8520702 -24.47203429 28.36294085 -22 21 C-18.59620587 13.34927007 -9.17368771 0 0 0 Z " fill="#000000" transform="translate(557,508)"/>
<path d="M0 0 C6.36998521 5.44102903 12.22948753 11.78421202 15.75 19.4375 C15.255 20.9225 15.255 20.9225 14.75 22.4375 C12.1875 23.625 12.1875 23.625 9.75 24.4375 C9.10933594 23.48488281 8.46867188 22.53226563 7.80859375 21.55078125 C6.93552366 20.28342144 6.06179003 19.01651855 5.1875 17.75 C4.76919922 17.12416016 4.35089844 16.49832031 3.91992188 15.85351562 C0.35262988 10.73056247 -3.64331549 6.82138913 -9.55078125 4.5546875 C-16.13300041 3.762265 -20.8640143 5.66908756 -26.25 9.4375 C-30.61218356 13.36507486 -34.28174588 17.50694352 -35.25 23.4375 C-35.31589938 29.51122657 -34.25032865 33.70026871 -30.25 38.4375 C-27.99514258 40.54235617 -25.6675498 42.5224746 -23.25 44.4375 C-20.51193128 43.16370281 -18.28402625 41.78506812 -16 39.8125 C-15.0925 39.02875 -14.185 38.245 -13.25 37.4375 C-14.9 35.1275 -16.55 32.8175 -18.25 30.4375 C-17.5 28.5 -17.5 28.5 -16.25 26.4375 C-14.171875 25.80859375 -14.171875 25.80859375 -12.25 25.4375 C-10.57401988 27.20027195 -8.90940764 28.97174289 -7.25 30.75 C-6.77304687 31.24951172 -6.29609375 31.74902344 -5.8046875 32.26367188 C-2.25 36.09765625 -2.25 36.09765625 -2.25 39.4375 C-3.68359375 40.98046875 -3.68359375 40.98046875 -5.6875 42.625 C-6.40808594 43.22828125 -7.12867188 43.8315625 -7.87109375 44.453125 C-9.04865234 45.43539062 -9.04865234 45.43539062 -10.25 46.4375 C-11.92175609 47.91091215 -13.58855613 49.38996934 -15.25 50.875 C-16.013125 51.55433594 -16.77625 52.23367187 -17.5625 52.93359375 C-18.119375 53.42988281 -18.67625 53.92617187 -19.25 54.4375 C-29.58736129 51.56601075 -36.55679929 44.28964163 -42.19140625 35.3828125 C-44.96287946 30.28984697 -44.88033405 25.08084369 -44.25 19.4375 C-41.63793211 10.86227225 -35.52515398 3.90951044 -28.1015625 -0.9765625 C-19.32850676 -5.64880292 -8.32436581 -5.9224737 0 0 Z " fill="#000000" transform="translate(588.25,112.5625)"/>
<path d="M0 0 C4.44256243 4.26235267 5.42857735 8.09822508 5.65234375 14.125 C5.53931695 19.48380012 4.62545516 22.07489895 1.21484375 26.125 C1.21484375 26.785 1.21484375 27.445 1.21484375 28.125 C2.54898439 29.45482563 2.54898439 29.45482563 4.3203125 30.76953125 C4.97451172 31.28193359 5.62871094 31.79433594 6.30273438 32.32226562 C6.99560547 32.85529297 7.68847656 33.38832031 8.40234375 33.9375 C12.94788103 37.45648532 17.24719168 40.95703928 21.21484375 45.125 C17.085009 47.18991737 14.66090099 47.35464627 10.21484375 46.125 C7.80361481 44.55141259 5.71497987 42.68645581 3.58984375 40.75 C2.4734004 39.76217915 1.35623082 38.77517839 0.23828125 37.7890625 C-0.28507812 37.32701416 -0.8084375 36.86496582 -1.34765625 36.38891602 C-3.94560216 34.09796044 -3.94560216 34.09796044 -6.78515625 32.125 C-10.47330918 32.35368094 -10.47330918 32.35368094 -13.78515625 33.125 C-13.78515625 36.23477923 -13.62010319 38.30584389 -12.91015625 41.234375 C-12.7296875 41.98847656 -12.54921875 42.74257813 -12.36328125 43.51953125 C-12.1725 44.29683594 -11.98171875 45.07414063 -11.78515625 45.875 C-11.49898438 47.06416016 -11.49898438 47.06416016 -11.20703125 48.27734375 C-10.73710482 50.22753845 -10.26166879 52.17640409 -9.78515625 54.125 C-12.42515625 54.455 -15.06515625 54.785 -17.78515625 55.125 C-19.29742366 49.77239453 -20.8090344 44.41960419 -22.32006836 39.06665039 C-22.83291398 37.25019466 -23.34593099 35.43378731 -23.85913086 33.61743164 C-25.30032465 28.51641954 -26.73811073 23.41447404 -28.17047119 18.31097412 C-28.71405023 16.37787082 -29.26174535 14.44592597 -29.81005859 12.51416016 C-30.08414551 11.53624512 -30.35823242 10.55833008 -30.640625 9.55078125 C-30.8677417 8.74680908 -31.0948584 7.94283691 -31.32885742 7.11450195 C-31.78515625 5.125 -31.78515625 5.125 -31.78515625 2.125 C-7.95067119 -5.35248551 -7.95067119 -5.35248551 0 0 Z M-22.78515625 7.125 C-21.13515625 13.395 -19.48515625 19.665 -17.78515625 26.125 C-8.90077924 24.61470431 -8.90077924 24.61470431 -2.41015625 19.375 C-1.16339615 14.88666365 -2.21236433 11.24671752 -4.28515625 7.1875 C-7.44474386 4.58084022 -9.29316927 4.63242589 -13.2734375 4.75390625 C-16.50594728 5.23149323 -19.64328074 6.22732128 -22.78515625 7.125 Z " fill="#000000" transform="translate(426.78515625,605.875)"/>
<path d="M0 0 C7.5247104 22.37976599 7.5247104 22.37976599 5 29.875 C1.96210524 34.62171057 -1.66205763 36.22068588 -7 38 C-12.67475291 38.37211494 -16.03463692 38.07379619 -21 35 C-21.66 34.34 -22.32 33.68 -23 33 C-23.4846875 33.66644531 -23.969375 34.33289063 -24.46875 35.01953125 C-29.3125 41.6796875 -34.15625 48.33984375 -39 55 C-41 54 -41 54 -42.55859375 51.0625 C-43.27958867 48.29974331 -43.12530242 47.2498736 -41.82861328 44.6640625 C-39.98969014 42.03302775 -38.0643516 39.5093369 -36.0625 37 C-31.21448941 31.47761776 -31.21448941 31.47761776 -28.78076172 24.81640625 C-29.02830548 22.68651906 -29.02830548 22.68651906 -30 20 C-34.31774236 20 -37.62442497 21.08217169 -41.625 22.5 C-48.76013514 25 -48.76013514 25 -51 25 C-51.66 22.36 -52.32 19.72 -53 17 C-45.77483549 14.57475392 -38.54812834 12.15414935 -31.3203125 9.73681641 C-28.85999061 8.91334979 -26.40002825 8.08880819 -23.94042969 7.26318359 C-20.41174037 6.07889745 -16.88179006 4.89844164 -13.3515625 3.71875 C-12.24632233 3.34689575 -11.14108215 2.9750415 -10.00234985 2.59191895 C-8.98144257 2.25156616 -7.96053528 1.91121338 -6.90869141 1.56054688 C-6.00712311 1.2585437 -5.10555481 0.95654053 -4.17666626 0.64538574 C-2 0 -2 0 0 0 Z M-15.75 12.4375 C-16.44738281 12.68048828 -17.14476562 12.92347656 -17.86328125 13.17382812 C-19.57885098 13.77310248 -21.28989715 14.38529885 -23 15 C-22.0601981 21.31210233 -20.97637961 25.78089555 -16 30 C-11.017065 30.79094206 -9.05118061 30.53514649 -4.5625 28.25 C-1.85829016 25.87557185 -1.38473533 25.41452608 -1 22 C-1.52357289 19.15514886 -1.52357289 19.15514886 -2.4375 16.25 C-2.72496094 15.26515625 -3.01242188 14.2803125 -3.30859375 13.265625 C-3.65083984 12.14414062 -3.65083984 12.14414062 -4 11 C-8.16673521 9.20658562 -11.74663341 10.98826616 -15.75 12.4375 Z " fill="#000000" transform="translate(76,417)"/>
<path d="M0 0 C4.5023281 2.58821449 7.0147195 4.96438111 8.73828125 10.02734375 C8.73828125 11.34734375 8.73828125 12.66734375 8.73828125 14.02734375 C17.64828125 11.05734375 26.55828125 8.08734375 35.73828125 5.02734375 C33.73828125 14.02734375 33.73828125 14.02734375 31.24804688 15.67236328 C30.22388672 15.91583496 29.19972656 16.15930664 28.14453125 16.41015625 C27.03207031 16.71050781 25.91960937 17.01085937 24.7734375 17.3203125 C23.02353516 17.73216797 23.02353516 17.73216797 21.23828125 18.15234375 C13.49104025 19.48385601 13.49104025 19.48385601 7.51171875 23.82714844 C6.83015535 25.95688857 6.83015535 25.95688857 6.73828125 29.02734375 C7.27831787 29.19339111 7.81835449 29.35943848 8.37475586 29.53051758 C10.81252802 30.28777403 13.24401909 31.06351515 15.67578125 31.83984375 C16.52591797 32.10087891 17.37605469 32.36191406 18.25195312 32.63085938 C19.06083984 32.89189453 19.86972656 33.15292969 20.703125 33.421875 C21.45198975 33.65753174 22.20085449 33.89318848 22.97241211 34.13598633 C24.73828125 35.02734375 24.73828125 35.02734375 25.73828125 38.02734375 C24.80078125 40.71484375 24.80078125 40.71484375 23.73828125 43.02734375 C17.23194085 41.68210948 11.00717808 39.93940601 4.70703125 37.83984375 C3.78990356 37.53667236 2.87277588 37.23350098 1.92785645 36.92114258 C0.00777954 36.28469373 -1.91152483 35.64590989 -3.83007812 35.00488281 C-6.77840644 34.02177933 -9.73079758 33.05162072 -12.68359375 32.08203125 C-14.55364453 31.46041437 -16.42344562 30.83804573 -18.29296875 30.21484375 C-19.17827271 29.92520752 -20.06357666 29.63557129 -20.97570801 29.3371582 C-21.78745483 29.06347412 -22.59920166 28.78979004 -23.43554688 28.5078125 C-24.15230591 28.26957764 -24.86906494 28.03134277 -25.60754395 27.78588867 C-27.26171875 27.02734375 -27.26171875 27.02734375 -28.26171875 25.02734375 C-27.44777135 22.22144509 -26.56327927 19.52089158 -25.57421875 16.77734375 C-25.31705078 16.02582031 -25.05988281 15.27429688 -24.79492188 14.5 C-22.59388285 8.30247979 -20.08609758 2.59712432 -14.26171875 -0.97265625 C-9.38644996 -2.59774585 -4.71842799 -2.02916851 0 0 Z M-12.76171875 7.33984375 C-16.44667033 11.3011667 -17.68587062 15.92124366 -19.26171875 21.02734375 C-16.47136829 22.03115291 -13.6795702 23.03053825 -10.88671875 24.02734375 C-9.695625 24.45660156 -9.695625 24.45660156 -8.48046875 24.89453125 C-7.33964844 25.30058594 -7.33964844 25.30058594 -6.17578125 25.71484375 C-5.47404785 25.96621094 -4.77231445 26.21757812 -4.04931641 26.4765625 C-2.25491764 27.12549465 -2.25491764 27.12549465 -0.26171875 27.02734375 C2.33934806 19.33696284 2.33934806 19.33696284 1.80078125 11.46484375 C-0.66268943 8.55346931 -2.69133454 7.33891346 -6.26171875 6.02734375 C-10.14205169 5.71745448 -10.14205169 5.71745448 -12.76171875 7.33984375 Z " fill="#000000" transform="translate(38.26171875,219.97265625)"/>
<path d="M0 0 C1.59558743 0.31248152 3.1908147 0.6268025 4.78588867 0.94189453 C6.11845955 1.20415329 6.11845955 1.20415329 7.47795105 1.47171021 C14.37789074 2.91703018 22.04537473 4.71506637 27 10 C29.71532836 14.50300006 29.51890497 18.88392128 29 24 C27.30934196 28.71604611 24.83399648 31.79014248 21 35 C19.01646635 35.71416994 17.01735042 36.38783849 15 37 C15.30292969 37.71655762 15.60585938 38.43311523 15.91796875 39.17138672 C17.282325 42.40438627 18.6412266 45.63965035 20 48.875 C20.47695313 50.00292969 20.95390625 51.13085938 21.4453125 52.29296875 C21.89648438 53.36933594 22.34765625 54.44570312 22.8125 55.5546875 C23.23144531 56.54968262 23.65039062 57.54467773 24.08203125 58.56982422 C25 61 25 61 25 63 C21.673294 62.93831874 18.99097308 62.49768532 16 61 C13.5371963 57.44640697 12.28681881 53.58482307 10.9375 49.5 C10.54884766 48.42878906 10.16019531 47.35757813 9.75976562 46.25390625 C7 38.5343502 7 38.5343502 7 36 C4.36 35.34 1.72 34.68 -1 34 C-1.27714844 35.19238281 -1.55429687 36.38476562 -1.83984375 37.61328125 C-2.20565523 39.17970477 -2.57154471 40.74611007 -2.9375 42.3125 C-3.11990234 43.09818359 -3.30230469 43.88386719 -3.49023438 44.69335938 C-3.66748047 45.45068359 -3.84472656 46.20800781 -4.02734375 46.98828125 C-4.18968506 47.68477783 -4.35202637 48.38127441 -4.51928711 49.09887695 C-4.93765565 50.7534406 -5.46031369 52.38094108 -6 54 C-8.3431213 53.74438677 -10.67843403 53.40729228 -13 53 C-14.37556859 50.24886282 -13.64719439 49.0332825 -12.82836914 46.09130859 C-12.54800308 45.07040131 -12.26763702 44.04949402 -11.97877502 42.99765015 C-11.66738083 41.89240997 -11.35598663 40.7871698 -11.03515625 39.6484375 C-10.72299667 38.5192691 -10.4108371 37.39010071 -10.08921814 36.22671509 C-9.08703192 32.60757288 -8.0748824 28.99130182 -7.0625 25.375 C-6.38280733 22.92726546 -5.70376229 20.47935098 -5.02539062 18.03125 C-3.35777996 12.01872241 -1.68197299 6.00852461 0 0 Z M6 9 C5.13499112 11.60101286 4.28273072 14.20506411 3.4375 16.8125 C3.19064453 17.55048828 2.94378906 18.28847656 2.68945312 19.04882812 C1.18382668 23.48806366 1.18382668 23.48806366 2 28 C7.26345295 29.81498377 11.54165677 30.67949023 17 29 C19.93464875 25.91485644 21.28201616 23.12555877 21.75 18.9375 C21.61335356 16.29566885 21.31457907 15.32171059 19.44921875 13.4140625 C15.05952417 10.46486963 11.26715832 9.60652126 6 9 Z " fill="#000000" transform="translate(413,10)"/>
<path d="M0 0 C3.47691641 3.23657656 6.17297434 6.86927663 8.875 10.75 C12.15026854 15.41365814 15.47007257 20.00276997 19.0390625 24.44921875 C20 26 20 26 20 29 C18.02 29.99 16.04 30.98 14 32 C13.59160889 31.42443359 13.18321777 30.84886719 12.76245117 30.25585938 C10.91425109 27.66318341 9.05116011 25.08158237 7.1875 22.5 C6.54490234 21.59378906 5.90230469 20.68757812 5.24023438 19.75390625 C4.61826172 18.89667969 3.99628906 18.03945313 3.35546875 17.15625 C2.78465576 16.36025391 2.21384277 15.56425781 1.62573242 14.74414062 C1.08924072 14.16857422 0.55274902 13.59300781 0 13 C-3.83764027 13 -5.11486085 14.26535335 -8.1875 16.5 C-9.08855469 17.1496875 -9.98960938 17.799375 -10.91796875 18.46875 C-11.94857422 19.22671875 -11.94857422 19.22671875 -13 20 C-9.37506826 25.61665248 -5.57858261 30.87974129 -1.22265625 35.95703125 C0 38 0 38 0.00390625 40.13671875 C-1 42 -1 42 -6 44 C-10.29 38.06 -14.58 32.12 -19 26 C-22.9132706 27.56530824 -25.13199262 28.64528238 -28.3125 31.125 C-29.00988281 31.66382813 -29.70726563 32.20265625 -30.42578125 32.7578125 C-30.94527344 33.16773438 -31.46476562 33.57765625 -32 34 C-30.15067027 39.96935547 -25.97221833 44.46148472 -22.16796875 49.29296875 C-21.63558594 49.98261719 -21.10320312 50.67226563 -20.5546875 51.3828125 C-20.06468262 52.00559082 -19.57467773 52.62836914 -19.06982422 53.27001953 C-18 55 -18 55 -18 58 C-19.8125 59.75 -19.8125 59.75 -22 61 C-26.01021495 59.66326168 -27.34469297 57.04042531 -29.625 53.6875 C-30.50896411 52.41435482 -31.39441211 51.1422388 -32.28125 49.87109375 C-32.72984375 49.22640137 -33.1784375 48.58170898 -33.640625 47.91748047 C-36.43988664 43.968953 -39.42378473 40.15745506 -42.3828125 36.328125 C-44 34 -44 34 -44 32 C-42.55737305 30.70996094 -42.55737305 30.70996094 -40.51171875 29.234375 C-39.37126099 28.40365479 -39.37126099 28.40365479 -38.20776367 27.55615234 C-36.96023315 26.66210693 -36.96023315 26.66210693 -35.6875 25.75 C-33.94774359 24.48721758 -32.20816552 23.22418943 -30.46875 21.9609375 C-29.56769531 21.30963867 -28.66664062 20.65833984 -27.73828125 19.98730469 C-22.57075321 16.23697674 -17.44969419 12.42334952 -12.32104492 8.62011719 C-8.27924173 5.63542801 -4.20936858 2.74378556 0 0 Z " fill="#000000" transform="translate(112,496)"/>
<path d="M0 0 C2.4375 0.8125 2.4375 0.8125 5 2 C5.33 2.99 5.66 3.98 6 5 C4.515618 7.39464431 3.00940976 9.57726025 1.3125 11.8125 C0.41189243 13.02670042 -0.48785603 14.24153857 -1.38671875 15.45703125 C-1.8254834 16.04564941 -2.26424805 16.63426758 -2.71630859 17.24072266 C-4.56407185 19.77305092 -6.2845379 22.37658841 -8 25 C-4.37 27.64 -0.74 30.28 3 33 C6.67087464 29.49155344 9.6944308 25.87626858 12.6875 21.75 C16.77990431 16.11004785 16.77990431 16.11004785 19 15 C21.625 16.4375 21.625 16.4375 24 18 C22.69497886 20.76603606 21.24353144 23.16498227 19.3984375 25.6015625 C18.90859375 26.25640625 18.41875 26.91125 17.9140625 27.5859375 C16.88142835 28.95404671 15.84755789 30.32122358 14.8125 31.6875 C14.08160156 32.66589844 14.08160156 32.66589844 13.3359375 33.6640625 C12.66377197 34.55279053 12.66377197 34.55279053 11.97802734 35.45947266 C10.82134172 36.97728406 10.82134172 36.97728406 11 39 C13.36431082 41.08737817 13.36431082 41.08737817 16.3125 43.1875 C17.29863281 43.92355469 18.28476563 44.65960938 19.30078125 45.41796875 C20.19152344 45.94003906 21.08226562 46.46210938 22 47 C26.130781 45.623073 27.53958587 42.71454829 29.875 39.25 C32.94522489 34.72446974 36.00554086 30.75106915 40 27 C41.65 28.65 43.3 30.3 45 32 C42.79225409 35.00043269 40.58369377 38.000265 38.375 41 C37.75753906 41.83917969 37.14007813 42.67835938 36.50390625 43.54296875 C32.6950893 48.71494125 28.86418353 53.86925283 25 59 C19.65642072 56.10989292 14.95832485 52.81169025 10.1875 49.0625 C3.15713321 43.59731363 -3.99702085 38.34170562 -11.28637695 33.22680664 C-12.005271 32.71625732 -12.72416504 32.20570801 -13.46484375 31.6796875 C-14.100271 31.23351074 -14.73569824 30.78733398 -15.39038086 30.32763672 C-17 29 -17 29 -19 26 C-16.9595973 23.16575454 -14.917441 20.33277687 -12.875 17.5 C-12.30523437 16.70851562 -11.73546875 15.91703125 -11.1484375 15.1015625 C-7.48703637 10.02552911 -3.77505983 4.99209918 0 0 Z " fill="#000000" transform="translate(76,121)"/>
<path d="M0 0 C3.46941546 0.45822468 6.67395049 0.89131683 10 2 C10.99 30.71 10.99 30.71 12 60 C5 59 5 59 4 58 C3.92686433 55.46950598 3.90752473 52.96695163 3.9375 50.4375 C3.94201172 49.72658203 3.94652344 49.01566406 3.95117188 48.28320312 C3.96299136 46.52209987 3.98092737 44.76103964 4 43 C3.23816406 42.81824219 2.47632813 42.63648438 1.69140625 42.44921875 C-4.65889864 40.90326437 -10.83123818 39.15906664 -17 37 C-17.26554688 37.57234375 -17.53109375 38.1446875 -17.8046875 38.734375 C-19.05676891 41.1076012 -20.4936352 43.12213286 -22.125 45.25 C-22.66382813 45.95640625 -23.20265625 46.6628125 -23.7578125 47.390625 C-24.16773438 47.92171875 -24.57765625 48.4528125 -25 49 C-30.75 48.25 -30.75 48.25 -33 46 C-32.45811035 45.27018921 -32.45811035 45.27018921 -31.90527344 44.52563477 C-23.44791547 33.12316083 -15.13489197 21.63453549 -7 10 C-6.2332311 8.9061391 -5.4663165 7.81238031 -4.69921875 6.71875 C-3.13066531 4.4806537 -1.56395918 2.2413077 0 0 Z M2 10 C0.90979874 11.43101998 -0.13471379 12.89688474 -1.16015625 14.375 C-1.78857422 15.27734375 -2.41699219 16.1796875 -3.06445312 17.109375 C-3.72380859 18.06328125 -4.38316406 19.0171875 -5.0625 20 C-5.72572266 20.95390625 -6.38894531 21.9078125 -7.07226562 22.890625 C-8.71784118 25.25835961 -10.36025739 27.62822381 -12 30 C-9.20083611 31.86610926 -7.18061731 32.68785383 -4 33.625 C-3.13375 33.88539063 -2.2675 34.14578125 -1.375 34.4140625 C1.07774284 35.11976431 1.07774284 35.11976431 4 35 C3.67 26.75 3.34 18.5 3 10 C2.67 10 2.34 10 2 10 Z " fill="#000000" transform="translate(254,602)"/>
<path d="M0 0 C1.64648438 1.57202148 1.64648438 1.57202148 3.09375 3.62109375 C3.64297119 4.38317139 4.19219238 5.14524902 4.75805664 5.93041992 C5.33289795 6.75775635 5.90773926 7.58509277 6.5 8.4375 C7.10513428 9.28481689 7.71026855 10.13213379 8.33374023 11.00512695 C9.59883038 12.77756668 10.85843259 14.55393502 12.11279297 16.33398438 C13.92973528 18.90073858 15.77263031 21.44596442 17.62890625 23.984375 C18.77353517 25.55201202 19.91807026 27.11971756 21.0625 28.6875 C21.58585937 29.40413818 22.10921875 30.12077637 22.6484375 30.85913086 C25.97213461 35.45444271 29.05689125 40.15219245 32 45 C29.56794519 46.32443732 28.30654654 47.00715116 25.48828125 46.94140625 C22.12774567 45.66999483 21.11807313 43.92799563 19.1875 40.9375 C18.58292969 40.01839844 17.97835938 39.09929688 17.35546875 38.15234375 C16.90816406 37.44207031 16.46085937 36.73179688 16 36 C14.21142578 36.54140625 14.21142578 36.54140625 12.38671875 37.09375 C10.82037676 37.56271467 9.25396695 38.03145289 7.6875 38.5 C6.90181641 38.73847656 6.11613281 38.97695313 5.30664062 39.22265625 C4.54931641 39.44824219 3.79199219 39.67382812 3.01171875 39.90625 C2.31522217 40.11572266 1.61872559 40.32519531 0.90112305 40.54101562 C-1 41 -1 41 -4 41 C-4 45.95 -4 50.9 -4 56 C-8 58 -8 58 -12 58 C-12.18771054 45.84834981 -11.59900716 33.75791013 -11 21.625 C-10.90334027 19.61720219 -10.80698391 17.60938975 -10.7109375 15.6015625 C-10.47745098 10.7341995 -10.23987569 5.86705214 -10 1 C-6.26101569 -0.8160781 -3.97348815 -1.42079093 0 0 Z M-3 9 C-3.86963087 11.99706695 -4.11763099 14.64956526 -4.09765625 17.765625 C-4.09443359 18.65507813 -4.09121094 19.54453125 -4.08789062 20.4609375 C-4.07951172 21.38132812 -4.07113281 22.30171875 -4.0625 23.25 C-4.05798828 24.18585937 -4.05347656 25.12171875 -4.04882812 26.0859375 C-4.03706918 28.39069041 -4.02063426 30.69531227 -4 33 C0.01096244 32.49923742 3.68235374 31.95273446 7.4375 30.4375 C8.613125 29.963125 9.78875 29.48875 11 29 C8.39994611 24.13902969 5.43506078 19.59863164 2.3125 15.0625 C1.70547241 14.17461792 1.70547241 14.17461792 1.08618164 13.26879883 C0.08471789 11.82654774 -0.95431035 10.41051444 -2 9 C-2.33 9 -2.66 9 -3 9 Z " fill="#000000" transform="translate(245,16)"/>
<path d="M0 0 C7.68328292 3.55306745 16.77585652 9.44774347 21 17 C22.58396941 21.75190824 22.48049729 25.67265165 20.4375 30.25 C17.80021488 34.72891473 14.90294744 38.14619193 9.7421875 39.6640625 C0.87571036 41.08158706 -5.56292777 37.46224334 -13 33 C-16.96 38.28 -20.92 43.56 -25 49 C-26.98 48.01 -28.96 47.02 -31 46 C-30.56621461 40.81429279 -27.86502015 37.80240019 -24.75 33.875 C-19.37018832 26.91867173 -14.34537895 19.77938595 -9.45410156 12.47216797 C-6.50770904 8.09730621 -3.45705772 3.98548459 0 0 Z M2 10 C0.32457538 12.26481507 -1.34039016 14.53614326 -3 16.8125 C-3.47695312 17.45509766 -3.95390625 18.09769531 -4.4453125 18.75976562 C-5.12207031 19.69272461 -5.12207031 19.69272461 -5.8125 20.64453125 C-6.23144531 21.21534424 -6.65039062 21.78615723 -7.08203125 22.37426758 C-8.24584117 24.12422139 -8.24584117 24.12422139 -8 27 C-4.05149584 30.27741452 0.1494908 32.8952542 5.3125 33.1875 C8.83329558 31.63179963 10.66341741 30.07093712 13 27 C14.3309316 23.60030189 14.3309316 23.60030189 14 20 C10.78929679 14.88294177 7.21890207 12.87408876 2 10 Z " fill="#000000" transform="translate(171,559)"/>
<path d="M0 0 C4.9170075 2.65536718 8.23688467 6.710654 10 12 C10.98192693 17.92466024 10.07243216 22.15073137 6.64453125 27.0703125 C3.75239044 30.46394091 0.45557971 33.18868092 -3 36 C2.445 43.92 2.445 43.92 8 52 C6.35 53.65 4.7 55.3 3 57 C2.34 57 1.68 57 1 57 C-0.87754923 54.55673968 -2.63830095 52.10373575 -4.375 49.5625 C-5.45818852 48.0025036 -6.54152619 46.44261077 -7.625 44.8828125 C-8.181875 44.07618164 -8.73875 43.26955078 -9.3125 42.43847656 C-11.97683204 38.58845508 -14.67548151 34.76289012 -17.375 30.9375 C-18.0872876 29.92248413 -18.0872876 29.92248413 -18.81396484 28.88696289 C-19.27496582 28.23203857 -19.7359668 27.57711426 -20.2109375 26.90234375 C-20.65920898 26.26280762 -21.10748047 25.62327148 -21.56933594 24.96435547 C-22.58349712 23.57187409 -23.63828601 22.20857609 -24.71972656 20.86767578 C-25.27885742 20.17013184 -25.83798828 19.47258789 -26.4140625 18.75390625 C-26.93178223 18.12943604 -27.44950195 17.50496582 -27.98291016 16.86157227 C-29 15 -29 15 -28.83447266 12.90844727 C-27.44472476 9.73008 -24.55813583 8.2184152 -21.75 6.375 C-21.17636719 5.98054688 -20.60273438 5.58609375 -20.01171875 5.1796875 C-13.5311223 0.8100826 -7.83272813 -1.39302809 0 0 Z M-12.625 9.3125 C-13.78902344 9.95638672 -13.78902344 9.95638672 -14.9765625 10.61328125 C-17.26890818 11.99953792 -17.26890818 11.99953792 -19 15 C-14.05 21.93 -14.05 21.93 -9 29 C-4.0955146 27.77387865 -1.28344691 25.81358678 2 22 C3.40814405 18.56191578 3.40814405 18.56191578 3 15 C1.02061533 11.25330759 -0.47016053 9.35322631 -4 7 C-8.05443713 7 -9.2406359 7.39393908 -12.625 9.3125 Z " fill="#000000" transform="translate(161,57)"/>
<path d="M0 0 C2.64 0 5.28 0 8 0 C8.0611763 10.43784198 7.9164671 20.85901495 7.62768555 31.29272461 C7.56153245 33.72304582 7.50239109 36.15348093 7.44335938 38.58398438 C7.40146575 40.14324062 7.3591637 41.70248595 7.31640625 43.26171875 C7.29133751 44.34135139 7.29133751 44.34135139 7.26576233 45.4427948 C7.16752213 48.75287682 7.00397129 51.82985984 6 55 C3.69 55 1.38 55 -1 55 C-1.13608225 36.63308354 -0.82810109 18.35036773 0 0 Z " fill="#000000" transform="translate(332,615)"/>
<path d="M0 0 C2.64 0 5.28 0 8 0 C9.47059383 17.96225327 9.09464603 35.99395748 9 54 C6.69 54 4.38 54 2 54 C1.08317338 42.1914981 0.70539102 30.40109624 0.4375 18.5625 C0.39417134 16.75194613 0.35055328 14.94139917 0.30664062 13.13085938 C0.20110121 8.75397839 0.09944147 4.3770236 0 0 Z " fill="#000000" transform="translate(330,1)"/>
</svg>
